<?xml version="1.0" encoding="UTF-8"?>
<svg version="1.1" xmlns="http://www.w3.org/2000/svg" width="1024" height="1024">
<path d="M0 0 C12.73529481 7.99483057 17.50154073 18.71156519 20.828125 32.78515625 C21.62468041 36.28960312 22.39865777 39.79893248 23.171875 43.30859375 C32.91239619 87.49408785 50.83860702 130.00213706 80 165 C80.4522998 165.54849609 80.90459961 166.09699219 81.37060547 166.66210938 C93.86236136 181.85670394 93.86236136 181.85670394 108.078125 195.3828125 C109.36817033 196.46833845 110.6290556 197.58940924 111.859375 198.7421875 C156.29009181 240.24529894 221.58297532 262.22422204 281.75 262.1875 C283.62679443 262.18737915 283.62679443 262.18737915 285.54150391 262.18725586 C299.77993735 262.10163419 313.91019938 261.04302109 328 259 C337.36503367 258.07561965 346.1121241 260.37502961 354.375 264.8125 C355.24125 265.534375 356.1075 266.25625 357 267 C357.55945313 267.45761719 358.11890625 267.91523438 358.6953125 268.38671875 C365.96573334 274.88603435 370.48903889 284.05289418 371.203125 293.76171875 C371.39846247 305.95403258 368.1862444 315.99624401 360.01953125 325.2421875 C354.32869635 330.74691936 347.86052895 334.68424981 341.09765625 338.70288086 C322.82305549 349.5911202 304.8814455 362.75559242 290 378 C289.25105469 378.73863281 288.50210938 379.47726562 287.73046875 380.23828125 C286.91191406 381.04652344 286.09335937 381.85476563 285.25 382.6875 C284.08210937 383.83798828 284.08210937 383.83798828 282.890625 385.01171875 C280.94769385 386.8610699 280.94769385 386.8610699 280 389 C279.34 389 278.68 389 278 389 C277.75894531 389.55429687 277.51789062 390.10859375 277.26953125 390.6796875 C275.72083685 393.51022435 273.80707428 395.68974444 271.6875 398.125 C225.57936219 452.59172433 204.33416772 523.18389737 209.6875 594 C212.0413589 620.41190516 217.90067801 647.28652988 231.02612305 670.53930664 C236.68563748 680.5835785 238.54647659 690.25163917 235.8125 701.5 C232.21375704 713.54065402 225.5867435 722.03736371 214.859375 728.48828125 C205.13641622 733.62869798 195.41179898 734.57080578 184.875 731.375 C176.43082479 728.23549896 170.29753873 723.31423485 163.5625 717.4375 C108.20249036 669.1662261 33.73446524 643.90030267 -39.43847656 648.20214844 C-72.57047002 650.88633623 -105.23452258 660.31054361 -135 675 C-136.15773926 675.56557617 -136.15773926 675.56557617 -137.33886719 676.14257812 C-154.99271242 684.84797865 -172.12491361 695.05606518 -187 708 C-188.47107019 709.15620956 -189.95016469 710.30229001 -191.4375 711.4375 C-194.50086926 713.78972997 -197.46062688 716.23393443 -200.39404297 718.74633789 C-210.78358199 727.60587678 -219.91062619 733.5565718 -233.953125 733.2421875 C-244.78899361 732.38087487 -254.47819625 727.11379295 -261.875 719.1875 C-268.9005867 710.42657653 -272.53991418 700.40657458 -271.9375 689.125 C-270.86429677 681.35647205 -267.59885042 674.17462921 -264.13671875 667.19921875 C-249.38701747 637.46765168 -244.76021879 604.77067156 -244.8125 571.875 C-244.81376892 571.05241699 -244.81503784 570.22983398 -244.81634521 569.38232422 C-244.87908883 548.04742112 -247.90119812 528.38210212 -252.48095703 507.58764648 C-253 505 -253 505 -253 503 C-253.66 502.67 -254.32 502.34 -255 502 C-255.45573937 499.96670129 -255.90384397 497.93152849 -256.32421875 495.890625 C-261.35467395 474.37307096 -271.61373889 450.22813949 -284 432 C-284.70125 431.690625 -285.4025 431.38125 -286.125 431.0625 C-286.74375 430.711875 -287.3625 430.36125 -288 430 C-288.11085938 429.12601563 -288.22171875 428.25203125 -288.3359375 427.3515625 C-289.14776314 423.25423074 -291.03717622 420.57553574 -293.5 417.3125 C-293.95068848 416.70019531 -294.40137695 416.08789062 -294.86572266 415.45703125 C-299.05539242 409.81398254 -303.46382764 404.36768023 -308 399 C-308.88969889 397.9234877 -309.77900413 396.84664998 -310.66796875 395.76953125 C-321.58564115 382.65970565 -333.46827964 370.42120777 -347 360 C-347.93199219 359.23945313 -348.86398437 358.47890625 -349.82421875 357.6953125 C-358.89383073 350.42568753 -368.69726555 344.50452786 -378.61083984 338.46289062 C-392.04116729 330.23945694 -402.34020752 322.5776712 -407.6796875 307.01953125 C-409.63024105 294.72152897 -407.42229396 283.75108334 -400.79296875 273.32421875 C-395.08301878 265.92243176 -386.17117472 260.78048447 -377 259 C-366.73357946 258.25543394 -356.63658416 259.40181247 -346.4375 260.5 C-279.72975164 267.52197509 -214.9739493 250.43578774 -162 209 C-161.12085938 208.31550781 -160.24171875 207.63101563 -159.3359375 206.92578125 C-144.52365869 195.10654403 -130.95815533 181.8319801 -119.3125 166.875 C-118.87768311 166.31804443 -118.44286621 165.76108887 -117.99487305 165.18725586 C-115.69231417 162.40696776 -115.69231417 162.40696776 -115 159 C-114.01 159 -113.02 159 -112 159 C-111.76410156 158.48050781 -111.52820313 157.96101562 -111.28515625 157.42578125 C-109.56917623 154.18680377 -107.498652 151.21205897 -105.4375 148.1875 C-82.69486053 114.35462032 -67.42911895 76.69609247 -60.46826172 36.45385742 C-58.13745176 22.99519199 -54.1349963 10.60077152 -42.578125 2.25 C-30.11969213 -5.60258799 -13.20926417 -7.32004749 0 0 Z M-19 153 C-19.58265625 154.07894531 -20.1653125 155.15789062 -20.765625 156.26953125 C-37.62794266 187.22160906 -57.92996549 216.63541668 -83.34375 241.23828125 C-86.23107019 243.60161033 -86.23107019 243.60161033 -86 246 C-86.89489136 246.40835083 -86.89489136 246.40835083 -87.80786133 246.82495117 C-89.94975035 247.97306476 -91.35530803 249.10239649 -93.07421875 250.80078125 C-93.65010742 251.35902588 -94.22599609 251.91727051 -94.81933594 252.49243164 C-95.43583008 253.0930542 -96.05232422 253.69367676 -96.6875 254.3125 C-141.76955357 297.19799303 -201.25444309 323.43181966 -262 334 C-258.91867642 338.32593664 -255.70044142 342.3777972 -252.0625 346.25 C-240.20038504 359.27232182 -230.25236835 374.05129402 -221 389 C-220.61682617 389.61085449 -220.23365234 390.22170898 -219.83886719 390.85107422 C-181.47072319 452.12383751 -162.61734063 526.85315393 -169 599 C-161.90419856 600.99600603 -156.97883918 598.35677848 -150.4375 595.5 C-133.47564151 588.42048316 -116.3739215 583.13200356 -98.50170898 578.86425781 C-97.05260132 578.51766113 -97.05260132 578.51766113 -95.57421875 578.1640625 C-94.71401123 577.96248535 -93.85380371 577.7609082 -92.9675293 577.55322266 C-91.01396391 577.17706741 -91.01396391 577.17706741 -90 576 C-88.56687392 575.8321284 -87.12735621 575.71904971 -85.6875 575.625 C-79.27438302 575.10592265 -72.95818466 574.12904933 -66.61010742 573.10400391 C-52.30974441 570.85527717 -38.06960932 570.75801965 -23.625 570.75 C-22.53352661 570.74932526 -21.44205322 570.74865051 -20.31750488 570.74795532 C-2.68145922 570.76523796 14.52577271 571.4509957 32 574 C33.18287598 574.16628906 34.36575195 574.33257813 35.58447266 574.50390625 C66.5703981 578.9760163 96.29672102 587.90709927 125.02124023 600.24389648 C125.90368408 600.61716064 126.78612793 600.9904248 127.6953125 601.375 C128.47922363 601.71273438 129.26313477 602.05046875 130.07080078 602.3984375 C132.05453743 603.26156257 132.05453743 603.26156257 134 602 C133.93071289 600.97801514 133.86142578 599.95603027 133.79003906 598.90307617 C130.86714029 553.95027336 134.05335807 509.06254936 148 466 C148.38792725 464.78691162 148.38792725 464.78691162 148.78369141 463.54931641 C164.06781416 416.31343121 189.70005546 373.05864772 223.48828125 336.72265625 C225.10993165 335.25671357 225.10993165 335.25671357 225 334 C224.25766113 333.86013672 223.51532227 333.72027344 222.75048828 333.57617188 C190.75256537 327.46448508 159.69934835 318.33256609 130.80761719 302.95898438 C128.96593315 301.98192671 127.11336151 301.02855166 125.2578125 300.078125 C105.0649841 289.6473056 86.31624526 276.7048642 69 262 C67.98550781 261.16984375 66.97101563 260.3396875 65.92578125 259.484375 C57.30036839 252.35338875 49.4166286 244.57254404 41.57641602 236.59057617 C40.75197998 235.75244385 39.92754395 234.91431152 39.078125 234.05078125 C38.33981445 233.29450439 37.60150391 232.53822754 36.84082031 231.7590332 C35.11011506 229.93230833 35.11011506 229.93230833 33 229 C32.31513275 227.67592331 31.65129797 226.34090759 31 225 C29.58022091 222.77256213 29.58022091 222.77256213 28 221 C27.34 221 26.68 221 26 221 C25.73372803 220.42596436 25.46745605 219.85192871 25.19311523 219.26049805 C23.95012535 216.90550656 22.53815419 214.9378242 20.91015625 212.83203125 C20.2960791 212.02983154 19.68200195 211.22763184 19.04931641 210.40112305 C18.39366699 209.54687744 17.73801758 208.69263184 17.0625 207.8125 C5.87091446 193.05411519 -3.84406513 177.4397692 -13.078125 161.3984375 C-13.71234375 160.29757812 -14.3465625 159.19671875 -15 158.0625 C-15.556875 157.08410156 -16.11375 156.10570312 -16.6875 155.09765625 C-17.120625 154.40542969 -17.55375 153.71320313 -18 153 C-18.33 153 -18.66 153 -19 153 Z M-168 600 C-168.33 600.66 -168.66 601.32 -169 602 C-167.35 601.67 -165.7 601.34 -164 601 C-165.32 600.67 -166.64 600.34 -168 600 Z " fill="#51C0BB" transform="translate(523,113)"/>
<path d="M0 0 C0.86625 0.721875 1.7325 1.44375 2.625 2.1875 C3.18445313 2.64511719 3.74390625 3.10273438 4.3203125 3.57421875 C11.59073334 10.07353435 16.11403889 19.24039418 16.828125 28.94921875 C17.02346247 41.14153258 13.8112444 51.18374401 5.64453125 60.4296875 C-0.04630365 65.93441936 -6.51447105 69.87174981 -13.27734375 73.89038086 C-31.55194451 84.7786202 -49.4935545 97.94309242 -64.375 113.1875 C-65.12394531 113.92613281 -65.87289062 114.66476562 -66.64453125 115.42578125 C-67.46308594 116.23402344 -68.28164063 117.04226563 -69.125 117.875 C-69.90359375 118.64199219 -70.6821875 119.40898437 -71.484375 120.19921875 C-73.42730615 122.0485699 -73.42730615 122.0485699 -74.375 124.1875 C-75.035 124.1875 -75.695 124.1875 -76.375 124.1875 C-76.61605469 124.74179687 -76.85710937 125.29609375 -77.10546875 125.8671875 C-78.65416315 128.69772435 -80.56792572 130.87724444 -82.6875 133.3125 C-128.79563781 187.77922433 -150.04083228 258.37139737 -144.6875 329.1875 C-142.3336411 355.59940516 -136.47432199 382.47402988 -123.34887695 405.72680664 C-117.68936252 415.7710785 -115.82852341 425.43913917 -118.5625 436.6875 C-122.16124296 448.72815402 -128.7882565 457.22486371 -139.515625 463.67578125 C-149.23858378 468.81619798 -158.96320102 469.75830578 -169.5 466.5625 C-174.87151662 464.58757473 -180.18431914 462.16914452 -184.375 458.1875 C-184.94140625 456.25390625 -184.94140625 456.25390625 -185.375 454.1875 C-186.24242129 452.80127294 -187.1649581 451.44876912 -188.125 450.125 C-194.16738565 441.31169785 -197.54057066 431.36950521 -200.75 421.25 C-201.13647705 420.03417236 -201.5229541 418.81834473 -201.92114258 417.56567383 C-208.83315179 395.43328069 -213.62689746 372.92989679 -217.82177734 350.15649414 C-218.31764819 347.49529143 -218.83708808 344.84048159 -219.375 342.1875 C-218.715 342.1875 -218.055 342.1875 -217.375 342.1875 C-217.60485596 341.12438599 -217.60485596 341.12438599 -217.83935547 340.03979492 C-223.33423852 310.77966789 -220.69117586 278.38157755 -216.375 249.1875 C-217.035 250.1775 -217.695 251.1675 -218.375 252.1875 C-217.85130502 244.72326912 -216.81806291 237.5504316 -215.1875 230.25 C-214.96682861 229.25492432 -214.74615723 228.25984863 -214.51879883 227.23461914 C-203.5649224 179.08120989 -181.58122834 134.11883821 -151.375 95.1875 C-150.4267862 93.94944626 -149.47886639 92.71116731 -148.53125 91.47265625 C-142.80519488 84.03886532 -136.77500184 77.05127009 -130.375 70.1875 C-135.325 69.1975 -140.275 68.2075 -145.375 67.1875 C-145.375 66.8575 -145.375 66.5275 -145.375 66.1875 C-144.20582031 66.29449219 -143.03664063 66.40148437 -141.83203125 66.51171875 C-140.28392312 66.63369091 -138.73574175 66.75473592 -137.1875 66.875 C-136.03411133 66.98424805 -136.03411133 66.98424805 -134.85742188 67.09570312 C-130.06815113 67.4451349 -127.24513403 67.34573646 -123.375 64.1875 C-121.2385898 62.19221698 -119.20380394 60.11599758 -117.1875 58 C-115.28745038 56.00804955 -113.37004554 54.08824501 -111.375 52.1875 C-110.715 52.1875 -110.055 52.1875 -109.375 52.1875 C-109.1790625 51.64867187 -108.983125 51.10984375 -108.78125 50.5546875 C-106.75548543 47.14465047 -103.86901114 44.84527469 -100.875 42.3125 C-100.2142749 41.74805176 -99.5535498 41.18360352 -98.87280273 40.60205078 C-79.29055692 24.02456062 -59.09075483 10.11389949 -36.375 -1.8125 C-38.025 -2.1425 -39.675 -2.4725 -41.375 -2.8125 C-41.375 -3.1425 -41.375 -3.4725 -41.375 -3.8125 C-26.39170704 -6.05000508 -13.91252171 -7.47153944 0 0 Z " fill="#53C4BE" transform="translate(877.375,377.8125)"/>
<path d="M0 0 C2.13574067 3.203611 2.65551001 5.38735294 3.4375 9.125 C4.40692261 13.74499116 5.67787612 18.1110839 7.20336914 22.56689453 C8.02869453 25.0876401 8.74448879 27.61953374 9.4375 30.1796875 C19.66380884 67.74565243 36.99563128 103.99116366 62 134 C62.67844971 134.82274414 62.67844971 134.82274414 63.37060547 135.66210938 C75.86236136 150.85670394 75.86236136 150.85670394 90.078125 164.3828125 C91.36817033 165.46833845 92.6290556 166.58940924 93.859375 167.7421875 C137.93872456 208.9170838 203.18906358 231.3733954 262.984375 231.09765625 C264.16598206 231.0962413 265.34758911 231.09482635 266.56500244 231.09336853 C270.29336208 231.08782617 274.0216589 231.07528481 277.75 231.0625 C280.29687413 231.05747754 282.8437492 231.05291595 285.390625 231.04882812 C291.59377098 231.0378757 297.796881 231.02119615 304 231 C303.08680748 231.45498367 303.08680748 231.45498367 302.15516663 231.91915894 C297.53767 234.23488706 292.99327992 236.69082493 288.4375 239.125 C287.40302734 239.66898438 286.36855469 240.21296875 285.30273438 240.7734375 C278.07288839 244.64867116 271.51950808 249.03125786 265 254 C264.26499268 254.54736816 263.52998535 255.09473633 262.77270508 255.65869141 C253.37737933 262.65678756 244.3208262 269.96773345 235.51416016 277.69140625 C234.00371187 278.99679207 232.46071766 280.26420147 230.91796875 281.53125 C227.04959018 284.80409505 223.57885806 288.37265029 220.1328125 292.078125 C219.13035091 293.13555185 218.12774529 294.19284217 217.125 295.25 C216.63386719 295.79140625 216.14273438 296.3328125 215.63671875 296.890625 C211.97375429 300.69630236 209.45621756 301.83466007 204 302 C176.63455249 301.31443555 147.24761858 290.19487955 123.02783203 278.01025391 C120.65461726 276.82793237 118.26326248 275.686442 115.87109375 274.54296875 C92.41812668 263.22184259 70.85056246 248.86136957 51 232 C49.96427665 231.14884443 48.92777729 230.29863254 47.890625 229.44921875 C37.94243569 221.21021535 28.90657464 212.10487733 19.86254883 202.89428711 C18.69366771 201.70548797 17.51997208 200.52138351 16.33935547 199.34423828 C10 192.98177178 10 192.98177178 10 190 C9.34 190 8.68 190 8 190 C6.08155147 187.66264973 4.27906111 185.31562432 2.5 182.875 C1.96608643 182.15159424 1.43217285 181.42818848 0.88208008 180.68286133 C-0.75314153 178.46087373 -2.37783711 176.23153364 -4 174 C-4.47131348 173.35498535 -4.94262695 172.7099707 -5.42822266 172.04541016 C-13.9690747 160.33943711 -21.62810651 148.1635894 -28.99707031 135.69482422 C-29.87508699 134.21108717 -30.76110585 132.73209144 -31.6484375 131.25390625 C-32.09445312 130.48949219 -32.54046875 129.72507812 -33 128.9375 C-33.37125 128.30714844 -33.7425 127.67679687 -34.125 127.02734375 C-35.72829493 123.31256666 -36.56395642 120.6498062 -35.20458984 116.6730957 C-33.93780622 113.80486115 -32.57875867 110.99746595 -31.1875 108.1875 C-30.15952381 106.02298303 -29.13621639 103.85624362 -28.1171875 101.6875 C-27.59479492 100.57761719 -27.07240234 99.46773438 -26.53417969 98.32421875 C-12.76816363 68.4963902 -0.11296046 33.21037427 0 0 Z " fill="#3BA49C" transform="translate(541,144)"/>
<path d="M0 0 C0.33 0 0.66 0 1 0 C0.88168449 2.16704197 0.75480401 4.33361583 0.625 6.5 C0.55539062 7.7065625 0.48578125 8.913125 0.4140625 10.15625 C0.11541959 14.28509207 -0.44246476 18.36303663 -0.99609375 22.46484375 C-2.01882605 30.27568009 -2.43906944 38.03819199 -2.63305664 45.90942383 C-2.68758214 48.06574824 -2.7580634 50.22114947 -2.83007812 52.37695312 C-3.07380729 60.55736366 -2.86958343 68.55622572 -2.23803711 76.72094727 C-1.95314163 80.64549208 -1.90003529 84.50370502 -1.9375 88.4375 C-1.94652344 89.69433594 -1.95554687 90.95117188 -1.96484375 92.24609375 C-1.97644531 93.15488281 -1.98804688 94.06367187 -2 95 C-2.33 95 -2.66 95 -3 95 C-6.04311087 71.21646358 -7.14596392 46.9403909 -4.6875 23.0625 C-4.55770752 21.80131348 -4.42791504 20.54012695 -4.29418945 19.24072266 C-3.24941557 10.22023636 -3.24941557 10.22023636 -1 6 C-0.61709538 4.00889599 -0.27395385 2.00899487 0 0 Z " fill="#4ABAB1" transform="translate(661,621)"/>
<path d="M0 0 C0.33 0 0.66 0 1 0 C1.02768068 2.39591642 1.04715505 4.7914953 1.0625 7.1875 C1.07087891 7.84169922 1.07925781 8.49589844 1.08789062 9.16992188 C1.10802156 13.41755008 0.88076522 17.58151257 0.5 21.8125 C-0.23687267 30.80600804 -0.1074325 39.79632735 -0.0625 48.8125 C-0.05747152 50.5839831 -0.05291102 52.35546759 -0.04882812 54.12695312 C-0.0379372 58.41800387 -0.02074804 62.70898606 0 67 C-0.33 67 -0.66 67 -1 67 C-1.97845056 57.82810019 -2.39776481 48.65168528 -2.6875 39.4375 C-2.71156921 38.68764832 -2.73563843 37.93779663 -2.76043701 37.16522217 C-3.13729364 24.71365294 -3.34878742 12.11652177 0 0 Z " fill="#6DCBC4" transform="translate(732,640)"/>
<path d="M0 0 C0.66 0 1.32 0 2 0 C2.53109375 1.08539062 3.0621875 2.17078125 3.609375 3.2890625 C4.3226991 4.73448239 5.03625301 6.17978889 5.75 7.625 C6.27207031 8.69427734 6.27207031 8.69427734 6.8046875 9.78515625 C8.93718358 14.08963907 11.2438475 18.06441288 14 22 C9.41059255 21.54266394 7.67539954 20.05176472 4.75 16.5625 C4.06421875 15.75941406 3.3784375 14.95632813 2.671875 14.12890625 C0.07859887 10.82672053 -0.11561188 9.01772678 -0.0625 4.875 C-0.05347656 3.96492187 -0.04445313 3.05484375 -0.03515625 2.1171875 C-0.02355469 1.41851563 -0.01195312 0.71984375 0 0 Z " fill="#4AB2AA" transform="translate(680,812)"/>
<path d="M0 0 C1.48206495 0.254496 2.96068615 0.52911762 4.4375 0.8125 C5.67306641 1.03873047 5.67306641 1.03873047 6.93359375 1.26953125 C7.95646484 1.63111328 7.95646484 1.63111328 9 2 C9.33 2.99 9.66 3.98 10 5 C12.31470912 5.72870472 14.6505947 6.39239518 17 7 C17.99 7.66 18.98 8.32 20 9 C22.62531524 9.16713569 22.62531524 9.16713569 25 9 C25.66 10.65 26.32 12.3 27 14 C21.27221827 13.51898474 17.3285194 11.90674641 12.375 9.0625 C11.0924705 8.34268675 9.80864178 7.62518281 8.5234375 6.91015625 C7.92370117 6.5764502 7.32396484 6.24274414 6.70605469 5.89892578 C4.53386529 4.7543921 2.30426448 3.84313126 0 3 C0 2.01 0 1.02 0 0 Z " fill="#54B3AC" transform="translate(614,782)"/>
<path d="M0 0 C2.31 0.66 4.62 1.32 7 2 C7 2.66 7 3.32 7 4 C7.67546875 4.226875 8.3509375 4.45375 9.046875 4.6875 C12.80828901 6.35923956 15.92962974 8.58894276 19.25 11 C19.88679687 11.45117188 20.52359375 11.90234375 21.1796875 12.3671875 C25.87017234 15.74034468 25.87017234 15.74034468 27 18 C23.30753178 17.43984978 20.80833685 16.49673651 17.71484375 14.41796875 C16.93689453 13.89783203 16.15894531 13.37769531 15.35742188 12.84179688 C14.15956055 12.02291992 14.15956055 12.02291992 12.9375 11.1875 C12.13505859 10.65318359 11.33261719 10.11886719 10.50585938 9.56835938 C6.6846011 6.99019923 3.02949955 4.5221011 0 1 C0 0.67 0 0.34 0 0 Z " fill="#58B6AF" transform="translate(646,799)"/>
<path d="M0 0 C-0.33 0.99 -0.66 1.98 -1 3 C-8.50385355 6.75192677 -17.98726913 7.31064797 -26 5 C-26 4.34 -26 3.68 -26 3 C-26.66 2.67 -27.32 2.34 -28 2 C-27.16807129 2.01571045 -27.16807129 2.01571045 -26.31933594 2.03173828 C-23.79627041 2.07342004 -21.27327747 2.09936438 -18.75 2.125 C-17.87730469 2.14175781 -17.00460937 2.15851562 -16.10546875 2.17578125 C-14.83896484 2.18544922 -14.83896484 2.18544922 -13.546875 2.1953125 C-12.38430176 2.21102295 -12.38430176 2.21102295 -11.19824219 2.22705078 C-7.02221896 1.79572008 -4.45135971 -0.24729776 0 0 Z " fill="#5CC1B8" transform="translate(736,840)"/>
<path d="M0 0 C5.57948067 1.6913088 10.77344698 4.07794646 16.0625 6.5 C17.82378586 7.30303347 19.58549193 8.10514604 21.34765625 8.90625 C22.50793335 9.43702148 22.50793335 9.43702148 23.69165039 9.97851562 C26.10566934 11.0467605 28.54362961 12.03363039 31 13 C25.21056484 14.92981172 20.06430339 12.44307507 14.6875 10.125 C14.05521484 9.86847656 13.42292969 9.61195313 12.77148438 9.34765625 C11.14104793 8.65214317 9.56461984 7.83308235 8 7 C7.67 6.01 7.34 5.02 7 4 C5.01276732 3.29618843 3.01222047 2.6288189 1 2 C0.67 1.34 0.34 0.68 0 0 Z " fill="#58B0A9" transform="translate(684,346)"/>
<path d="M0 0 C0 0.33 0 0.66 0 1 C-3.3 1.66 -6.6 2.32 -10 3 C-10 3.33 -10 3.66 -10 4 C-10.84304688 4.04898438 -11.68609375 4.09796875 -12.5546875 4.1484375 C-13.65039062 4.22320313 -14.74609375 4.29796875 -15.875 4.375 C-17.51082031 4.47941406 -17.51082031 4.47941406 -19.1796875 4.5859375 C-22.13046474 4.73253491 -22.13046474 4.73253491 -24 7 C-26.6796875 7.44921875 -26.6796875 7.44921875 -29.875 7.6875 C-31.44894531 7.81705078 -31.44894531 7.81705078 -33.0546875 7.94921875 C-35.64528742 7.99388427 -37.55425627 7.78570994 -40 7 C-37.89679937 6.49595192 -35.79240209 5.99689492 -33.6875 5.5 C-32.51574219 5.2215625 -31.34398437 4.943125 -30.13671875 4.65625 C-27 4 -27 4 -24 4 C-23.67 3.34 -23.34 2.68 -23 2 C-20.671875 1.62109375 -20.671875 1.62109375 -17.75 1.4375 C-11.72674657 1.03866295 -6.06504959 -0.11892254 0 0 Z " fill="#76CEC8" transform="translate(456,686)"/>
<path d="M0 0 C3 1 3 1 4.07495117 2.88598633 C4.39439697 3.69318115 4.71384277 4.50037598 5.04296875 5.33203125 C5.56987305 6.65364258 5.56987305 6.65364258 6.10742188 8.00195312 C6.64206055 9.39317383 6.64206055 9.39317383 7.1875 10.8125 C7.55552734 11.72837891 7.92355469 12.64425781 8.30273438 13.58789062 C9.91866224 17.70415957 11 20.5129888 11 25 C10.34 25 9.68 25 9 25 C1.33257403 8.29157175 1.33257403 8.29157175 0 0 Z " fill="#4AA79D" transform="translate(553,192)"/>
<path d="M0 0 C15.345 1.485 15.345 1.485 31 3 C31 3.33 31 3.66 31 4 C7.56323998 6.53054718 7.56323998 6.53054718 0 2 C0 1.34 0 0.68 0 0 Z " fill="#6BC6C0" transform="translate(524,683)"/>
<path d="M0 0 C6.66500865 -0.59244521 11.86952975 1.51677155 18 4 C18 4.66 18 5.32 18 6 C19.32 6.66 20.64 7.32 22 8 C17.46759074 7.20593617 13.13907479 5.91632433 8.75 4.5625 C8.0178125 4.34529297 7.285625 4.12808594 6.53125 3.90429688 C4.66785585 3.32975035 2.83090572 2.67091408 1 2 C0.67 1.34 0.34 0.68 0 0 Z " fill="#57BCB4" transform="translate(612,701)"/>
<path d="M0 0 C1.94883138 2.92324707 2.48079727 4.51083018 3.125 7.875 C3.29257812 8.71804687 3.46015625 9.56109375 3.6328125 10.4296875 C3.99878845 12.99151915 4.06482904 15.41609989 4 18 C3.01 17.67 2.02 17.34 1 17 C0.34 17.99 -0.32 18.98 -1 20 C-0.67 13.4 -0.34 6.8 0 0 Z " fill="#319C93" transform="translate(541,144)"/>
<path d="M0 0 C0.66 1.32 1.32 2.64 2 4 C2.66 4 3.32 4 4 4 C6.13619737 10.20514474 7.36517527 15.42684522 7 22 C6.67 21.34 6.34 20.68 6 20 C5.34 19.67 4.68 19.34 4 19 C3.4375 17.28515625 3.4375 17.28515625 3 15.0625 C2.83757812 14.26070312 2.67515625 13.45890625 2.5078125 12.6328125 C2.34023438 11.76398437 2.17265625 10.89515625 2 10 C1.62505544 8.14582212 1.25005702 6.29165513 0.875 4.4375 C0.58235679 2.95852623 0.29032661 1.47943027 0 0 Z " fill="#67C4BE" transform="translate(264,596)"/>
<path d="M0 0 C-3.3661564 1.89294858 -6.68270219 2.76552027 -10.4375 3.625 C-12.10619141 4.01558594 -12.10619141 4.01558594 -13.80859375 4.4140625 C-16.6383116 4.93359454 -19.13549955 5.11779254 -22 5 C-21.360625 4.896875 -20.72125 4.79375 -20.0625 4.6875 C-19.381875 4.460625 -18.70125 4.23375 -18 4 C-17.67 3.01 -17.34 2.02 -17 1 C-11.29309366 0.00749455 -5.78591511 -0.10477512 0 0 Z " fill="#67C6BE" transform="translate(294,440)"/>
<path d="M0 0 C0.66 0.33 1.32 0.66 2 1 C0.8758824 2.29243468 -0.24932592 3.58392075 -1.375 4.875 C-2.00148438 5.59429687 -2.62796875 6.31359375 -3.2734375 7.0546875 C-4.47426834 8.4076598 -5.7208345 9.7208345 -7 11 C-7.69748583 12.31747324 -8.36959957 13.64914193 -9 15 C-9.66 15 -10.32 15 -11 15 C-9.37956629 8.3562218 -5.62049485 3.74699657 0 0 Z " fill="#68C3BC" transform="translate(130,379)"/>
<path d="M0 0 C7 8.20689655 7 8.20689655 7 13 C7.66 13.33 8.32 13.66 9 14 C9.625 17.0625 9.625 17.0625 10 20 C6.77255864 17.22194921 4.84182455 13.64575135 2.75 10 C2.37359375 9.3709375 1.9971875 8.741875 1.609375 8.09375 C0.65684479 6.44082993 -0.1801215 4.72257301 -1 3 C-0.67 2.01 -0.34 1.02 0 0 Z " fill="#5DB3AC" transform="translate(508,268)"/>
<path d="M0 0 C0.33 0 0.66 0 1 0 C0.47606294 5.86809507 -0.76108858 10.54873741 -3 16 C-3.33 16 -3.66 16 -4 16 C-4.21192221 10.80790596 -3.5912689 6.873261 -2 2 C-1.34 2 -0.68 2 0 2 C0 1.34 0 0.68 0 0 Z " fill="#53B9B2" transform="translate(274,742)"/>
<path d="M0 0 C1.09731445 0.01353516 1.09731445 0.01353516 2.21679688 0.02734375 C3.99884298 0.05063847 5.78071759 0.0864981 7.5625 0.125 C7.5625 0.455 7.5625 0.785 7.5625 1.125 C6.73105469 1.17398437 5.89960938 1.22296875 5.04296875 1.2734375 C3.95628906 1.34820312 2.86960938 1.42296875 1.75 1.5 C0.67105469 1.56960938 -0.40789062 1.63921875 -1.51953125 1.7109375 C-4.62376186 1.93695733 -4.62376186 1.93695733 -7.4375 4.125 C-9.91796875 4.3203125 -9.91796875 4.3203125 -12.625 4.25 C-13.52605469 4.23195313 -14.42710937 4.21390625 -15.35546875 4.1953125 C-16.04253906 4.17210937 -16.72960937 4.14890625 -17.4375 4.125 C-12.83286233 -0.47963767 -6.11433718 -0.14544626 0 0 Z " fill="#79CAC5" transform="translate(154.4375,371.875)"/>
<path d="M0 0 C6.68148263 4.47859599 11.79295818 9.9010112 17 16 C14 16 14 16 12.37426758 14.74658203 C11.80345459 14.17278809 11.2326416 13.59899414 10.64453125 13.0078125 C10.02255859 12.38519531 9.40058594 11.76257813 8.75976562 11.12109375 C8.11716797 10.46238281 7.47457031 9.80367188 6.8125 9.125 C6.15830078 8.47402344 5.50410156 7.82304687 4.83007812 7.15234375 C0 2.26686327 0 2.26686327 0 0 Z " fill="#2F958C" transform="translate(613,293)"/>
<path d="M0 0 C2.06277107 0.14194764 4.12521031 0.28872216 6.1875 0.4375 C7.91033203 0.55931641 7.91033203 0.55931641 9.66796875 0.68359375 C12.51598171 0.95403812 15.21210482 1.37521747 18 2 C18 2.33 18 2.66 18 3 C12.49273782 3.81172799 7.48927729 4.34431281 2 3 C1.34 2.01 0.68 1.02 0 0 Z " fill="#5DC0B9" transform="translate(555,687)"/>
<path d="M0 0 C0.12375 0.639375 0.2475 1.27875 0.375 1.9375 C0.684375 2.9584375 0.684375 2.9584375 1 4 C1.66 4.33 2.32 4.66 3 5 C2.35341074 8.49158202 1.03960471 11.0974856 -1 14 C-1.99 14.33 -2.98 14.66 -4 15 C-3.32584613 9.7415998 -1.75734451 4.97361654 0 0 Z " fill="#64C6BF" transform="translate(453,188)"/>
<path d="M0 0 C0.66 0.33 1.32 0.66 2 1 C1.42176904 5.06225548 0.10882263 7.84762346 -2.0625 11.3125 C-2.61035156 12.19550781 -3.15820312 13.07851563 -3.72265625 13.98828125 C-4.14417969 14.65214844 -4.56570313 15.31601562 -5 16 C-5.33 15.34 -5.66 14.68 -6 14 C-5.06425758 11.61385684 -4.07299238 9.32249433 -3 7 C-2.43351698 5.68921417 -1.87080592 4.37678954 -1.3125 3.0625 C-0.6628125 1.5465625 -0.6628125 1.5465625 0 0 Z " fill="#63C5BE" transform="translate(890,420)"/>
<path d="M0 0 C1.65 0.33 3.3 0.66 5 1 C3.79618552 3.49361571 2.54571278 5.68143083 1 8 C-1.125 8.6875 -1.125 8.6875 -3 9 C-2.44271087 5.65626525 -1.64826111 2.96687001 0 0 Z " fill="#40AFA6" transform="translate(264,773)"/>
<path d="M0 0 C0.33 0 0.66 0 1 0 C0.85820962 2.22942748 0.71140302 4.45853628 0.5625 6.6875 C0.48128906 7.92886719 0.40007812 9.17023437 0.31640625 10.44921875 C0.05508683 13.38180337 -0.34798379 16.13441617 -1 19 C-1.33 19 -1.66 19 -2 19 C-2.05411124 16.58303128 -2.09372278 14.16728213 -2.125 11.75 C-2.14175781 11.06808594 -2.15851563 10.38617187 -2.17578125 9.68359375 C-2.21213482 5.9391765 -2.07944349 3.17647273 0 0 Z " fill="#48B4A9" transform="translate(279,712)"/>
<path d="M0 0 C0.99 0.66 1.98 1.32 3 2 C0.88002166 3.19733988 -1.24513676 4.38298713 -3.375 5.5625 C-3.97828125 5.90474609 -4.5815625 6.24699219 -5.203125 6.59960938 C-6.76978241 7.46127095 -8.38290862 8.23718183 -10 9 C-10.66 8.67 -11.32 8.34 -12 8 C-9.69716746 5.45868642 -7.32686207 3.92889705 -4.3125 2.3125 C-3.50425781 1.87550781 -2.69601562 1.43851562 -1.86328125 0.98828125 C-1.24839844 0.66214844 -0.63351562 0.33601563 0 0 Z " fill="#61C5BD" transform="translate(364,409)"/>
<path d="M0 0 C6.88940671 0.43632909 13.35751464 1.08389845 20 3 C20 3.33 20 3.66 20 4 C14.39 3.67 8.78 3.34 3 3 C3 2.34 3 1.68 3 1 C2.01 0.67 1.02 0.34 0 0 Z " fill="#47B2AA" transform="translate(541,761)"/>
<path d="M0 0 C2.33990302 0.30520474 4.66796236 0.64154192 7 1 C8.28003906 1.18369141 8.28003906 1.18369141 9.5859375 1.37109375 C10.90464844 1.58958984 10.90464844 1.58958984 12.25 1.8125 C13.08015625 1.94269531 13.9103125 2.07289063 14.765625 2.20703125 C17.56234925 3.19957499 18.45295998 4.52373139 20 7 C15.57916835 6.2531799 11.41843259 4.88289994 7.1875 3.4375 C6.49462891 3.20353516 5.80175781 2.96957031 5.08789062 2.72851562 C3.39099886 2.15508324 1.69536922 1.57791831 0 1 C0 0.67 0 0.34 0 0 Z " fill="#74C5C0" transform="translate(585,773)"/>
<path d="M0 0 C2.64 0.33 5.28 0.66 8 1 C7 3 7 3 5.0390625 3.88671875 C4.24242187 4.15097656 3.44578125 4.41523437 2.625 4.6875 C1.83351563 4.95949219 1.04203125 5.23148438 0.2265625 5.51171875 C-2 6 -2 6 -5 5 C-4.34 5 -3.68 5 -3 5 C-3 4.34 -3 3.68 -3 3 C-2.34 3 -1.68 3 -1 3 C-0.67 2.01 -0.34 1.02 0 0 Z " fill="#61C5BE" transform="translate(424,768)"/>
<path d="M0 0 C0.66 0.33 1.32 0.66 2 1 C-1.3 4.63 -4.6 8.26 -8 12 C-9.32 11.67 -10.64 11.34 -12 11 C-8.04 7.37 -4.08 3.74 0 0 Z " fill="#6FCAC3" transform="translate(376,309)"/>
<path d="M0 0 C0.99 0 1.98 0 3 0 C1.75913019 6.35945776 -2.14469324 9.18350306 -7 13 C-7.33 12.01 -7.66 11.02 -8 10 C-7.4225 9.52949219 -6.845 9.05898438 -6.25 8.57421875 C-5.5075 7.95160156 -4.765 7.32898438 -4 6.6875 C-3.2575 6.07261719 -2.515 5.45773437 -1.75 4.82421875 C0.34613723 3.06049937 0.34613723 3.06049937 0 0 Z " fill="#48BBB1" transform="translate(749,445)"/>
<path d="M0 0 C0.66 0.33 1.32 0.66 2 1 C-3.58924205 6.8997555 -3.58924205 6.8997555 -7 8 C-8.34302277 7.70814606 -9.6789271 7.37901884 -11 7 C-9.21475351 5.80286983 -7.4215972 4.61752721 -5.625 3.4375 C-4.62726563 2.77621094 -3.62953125 2.11492187 -2.6015625 1.43359375 C-1.74304688 0.96050781 -0.88453125 0.48742187 0 0 Z " fill="#61C5BE" transform="translate(346,333)"/>
<path d="M0 0 C2.954889 3.5458668 5.45934985 7.63781033 7 12 C6.67 12.99 6.34 13.98 6 15 C5.731875 14.030625 5.46375 13.06125 5.1875 12.0625 C4.795625 11.051875 4.40375 10.04125 4 9 C3.01 8.67 2.02 8.34 1 8 C-0.35439668 5.29120665 -0.06501451 2.99066732 0 0 Z " fill="#6ECAC3" transform="translate(316,526)"/>
<path d="M0 0 C0.33 0 0.66 0 1 0 C1 4.95 1 9.9 1 15 C0.01 14.67 -0.98 14.34 -2 14 C-1.85866501 12.22880197 -1.71176792 10.45804713 -1.5625 8.6875 C-1.48128906 7.70136719 -1.40007813 6.71523438 -1.31640625 5.69921875 C-1 3 -1 3 0 0 Z " fill="#4ABBB1" transform="translate(892,406)"/>
<path d="M0 0 C0.89203125 0.01804687 1.7840625 0.03609375 2.703125 0.0546875 C3.71632813 0.08949219 3.71632813 0.08949219 4.75 0.125 C5.08 1.115 5.41 2.105 5.75 3.125 C0.8 2.795 -4.15 2.465 -9.25 2.125 C-5.38209997 0.19104999 -4.0999541 -0.10789353 0 0 Z " fill="#6BC3BD" transform="translate(538.25,759.875)"/>
<path d="M0 0 C0.66 0.99 1.32 1.98 2 3 C1.23883449 4.15227823 0.46567307 5.2966386 -0.3125 6.4375 C-0.74175781 7.07558594 -1.17101562 7.71367187 -1.61328125 8.37109375 C-3 10 -3 10 -6 11 C-4.54955729 6.89041233 -2.48889248 3.56741255 0 0 Z " fill="#62C5BD" transform="translate(712,492)"/>
<path d="M0 0 C4.98012761 1.50912958 8.24259942 4.55661849 12 8 C11.01 8.495 11.01 8.495 10 9 C8.51444617 8.07265428 7.03672494 7.13275187 5.5625 6.1875 C4.73878906 5.66542969 3.91507813 5.14335937 3.06640625 4.60546875 C1 3 1 3 0 0 Z " fill="#56AEA7" transform="translate(622,396)"/>
<path d="M0 0 C6.11485027 -0.09706112 11.93303301 0.22959149 18 1 C18 1.33 18 1.66 18 2 C15.56305726 2.24878997 13.12761611 2.47463404 10.6875 2.6875 C9.65206055 2.79674805 9.65206055 2.79674805 8.59570312 2.90820312 C3.44325817 3.33135078 3.44325817 3.33135078 1.01953125 1.51953125 C0.68308594 1.01808594 0.34664062 0.51664062 0 0 Z " fill="#76CBC7" transform="translate(162,373)"/>
<path d="M0 0 C4.81033104 2.54664585 8.32442148 4.99027798 12 9 C6.52386331 7.81887248 3.6905212 6.47335903 0 2 C0 1.34 0 0.68 0 0 Z " fill="#5BB1A9" transform="translate(645,321)"/>
<path d="M0 0 C5.29500913 1.36157378 7.23745533 4.60343955 10 9 C6.55729549 7.46990911 3.81074178 5.5068778 1 3 C0.67 2.01 0.34 1.02 0 0 Z " fill="#59B7B0" transform="translate(674,818)"/>
<path d="M0 0 C0.66 0 1.32 0 2 0 C2.33 3.63 2.66 7.26 3 11 C2.01 11 1.02 11 0 11 C0 7.37 0 3.74 0 0 Z " fill="#6BC5BE" transform="translate(278,703)"/>
<path d="M0 0 C0.33 0 0.66 0 1 0 C0.88557539 1.60495567 0.75805306 3.20898119 0.625 4.8125 C0.55539062 5.70582031 0.48578125 6.59914063 0.4140625 7.51953125 C0 10 0 10 -2 13 C-2.05416188 11.39620659 -2.09286638 9.79188594 -2.125 8.1875 C-2.14820313 7.29417969 -2.17140625 6.40085937 -2.1953125 5.48046875 C-2 3 -2 3 0 0 Z " fill="#4ABAB0" transform="translate(664,606)"/>
<path d="M0 0 C0.66 1.32 1.32 2.64 2 4 C1.34 4 0.68 4 0 4 C-0.4021875 5.2065625 -0.4021875 5.2065625 -0.8125 6.4375 C-1.4003125 7.7059375 -1.4003125 7.7059375 -2 9 C-2.99 9.33 -3.98 9.66 -5 10 C-3.66511872 6.40608886 -2.03977277 3.24509304 0 0 Z " fill="#64C6BE" transform="translate(702,508)"/>
<path d="M0 0 C0.66 1.32 1.32 2.64 2 4 C1.34 4 0.68 4 0 4 C-0.99 5.98 -1.98 7.96 -3 10 C-3.66 9.01 -4.32 8.02 -5 7 C-2.25 1.125 -2.25 1.125 0 0 Z " fill="#65C6BF" transform="translate(504,263)"/>
<path d="M0 0 C0.66 0 1.32 0 2 0 C2.69937202 1.4317616 3.38412718 2.87067032 4.0625 4.3125 C4.63677734 5.51326172 4.63677734 5.51326172 5.22265625 6.73828125 C6 9 6 9 5 12 C2 10 2 10 1.375 7.125 C1.25125 6.09375 1.1275 5.0625 1 4 C0.68325425 2.66262906 0.35729936 1.32711192 0 0 Z " fill="#3FAAA4" transform="translate(680,812)"/>
<path d="M0 0 C2.00293347 3.00440021 2.49271626 4.70993945 3.125 8.1875 C3.37636719 9.53908203 3.37636719 9.53908203 3.6328125 10.91796875 C3.75398438 11.60503906 3.87515625 12.29210937 4 13 C3.01 13 2.02 13 1 13 C0.83052421 11.58366664 0.66454493 10.16691467 0.5 8.75 C0.4071875 7.96109375 0.314375 7.1721875 0.21875 6.359375 C0 4 0 4 0 0 Z " fill="#6DCAC3" transform="translate(339,582)"/>
<path d="M0 0 C-1.32 0.33 -2.64 0.66 -4 1 C-4 1.66 -4 2.32 -4 3 C-10.93 2.505 -10.93 2.505 -18 2 C-18 1.67 -18 1.34 -18 1 C-11.97968656 0.39034801 -6.05329744 -0.13451772 0 0 Z " fill="#7FD0CB" transform="translate(242,374)"/>
<path d="M0 0 C2.74277578 3.19990508 4.6302836 6.00499382 6 10 C4.1875 9.9375 4.1875 9.9375 2 9 C0.1875 5.5625 0.1875 5.5625 -1 2 C-0.67 1.34 -0.34 0.68 0 0 Z " fill="#4FAAA3" transform="translate(581,248)"/>
<path d="M0 0 C-3.82517513 2.39073445 -7.59665524 2.55966552 -12 3 C-12 2.34 -12 1.68 -12 1 C-7.53763531 -0.80619523 -4.68965706 -1.11658501 0 0 Z " fill="#6BC9C3" transform="translate(447,766)"/>
<path d="M0 0 C4.95 0.99 4.95 0.99 10 2 C10 2.66 10 3.32 10 4 C11.32 4.66 12.64 5.32 14 6 C8.93001981 5.34580901 4.58009223 3.1453591 0 1 C0 0.67 0 0.34 0 0 Z " fill="#6BBBB6" transform="translate(666,422)"/>
<path d="M0 0 C2.25 0.125 2.25 0.125 5 1 C7.3125 4.0625 7.3125 4.0625 9 7 C5.18315774 5.44499019 2.80804268 2.96404505 0 0 Z " fill="#57AEA7" transform="translate(597,379)"/>
<path d="M0 0 C-1.43160268 1.00842453 -2.87051453 2.00647891 -4.3125 3 C-5.51326172 3.8353125 -5.51326172 3.8353125 -6.73828125 4.6875 C-9 6 -9 6 -12 6 C-9.23086099 1.95279683 -5.23609869 -2.61804934 0 0 Z " fill="#49BBB2" transform="translate(489,114)"/>
<path d="M0 0 C4.42857143 5.14285714 4.42857143 5.14285714 5 9 C2.09303901 7.93411431 1.15567038 7.29651501 -0.3125 4.5 C-1 2 -1 2 0 0 Z " fill="#62C5BE" transform="translate(307,510)"/>
<path d="M0 0 C2.32947183 2.11770166 3.88750845 4.03335588 5 7 C4.67 7.99 4.34 8.98 4 10 C0 4.5 0 4.5 0 0 Z " fill="#6AC6BF" transform="translate(887,389)"/>
<path d="M0 0 C-0.99 1.485 -0.99 1.485 -2 3 C-6.34586828 3.39507893 -8.32003497 3.45331002 -12 1 C-7.95858806 0.36605303 -4.0934693 -0.12404452 0 0 Z " fill="#6AC7C2" transform="translate(255,372)"/>
<path d="M0 0 C4.42857143 5.14285714 4.42857143 5.14285714 5 9 C4.01 9.495 4.01 9.495 3 10 C-0.22265625 4.82421875 -0.22265625 4.82421875 -1 3 C-0.67 2.01 -0.34 1.02 0 0 Z " fill="#52ADA3" transform="translate(508,268)"/>
<path d="M0 0 C0.99 0.33 1.98 0.66 3 1 C0.69 2.65 -1.62 4.3 -4 6 C-4.66 5.67 -5.32 5.34 -6 5 C-2.25 1.125 -2.25 1.125 0 0 Z " fill="#66C6C0" transform="translate(741,836)"/>
<path d="M0 0 C1.2077558 3.62326739 0.54311128 4.64146369 -1 8 C-1.66 7.67 -2.32 7.34 -3 7 C-2.625 4.0625 -2.625 4.0625 -2 1 C-1.34 0.67 -0.68 0.34 0 0 Z " fill="#51B8B2" transform="translate(267,766)"/>
<path d="M0 0 C0.99 0.33 1.98 0.66 3 1 C3.33 4.3 3.66 7.6 4 11 C1.6870518 8.6870518 1.50419025 7.52095125 0.875 4.375 C0.70742188 3.55773437 0.53984375 2.74046875 0.3671875 1.8984375 C0.24601563 1.27195312 0.12484375 0.64546875 0 0 Z " fill="#4BBEB2" transform="translate(739,754)"/>
<path d="M0 0 C0.66 0.66 1.32 1.32 2 2 C-4.625 3.25 -4.625 3.25 -8 1 C-3.375 -1.125 -3.375 -1.125 0 0 Z " fill="#6CCCC6" transform="translate(386,704)"/>
<path d="M0 0 C0 3.69418201 -1.28179295 5.77836178 -3 9 C-3.66 8.01 -4.32 7.02 -5 6 C-2.25 1.125 -2.25 1.125 0 0 Z " fill="#65C8BF" transform="translate(764,553)"/>
<path d="M0 0 C2 1.8125 2 1.8125 4 4 C4 4.99 4 5.98 4 7 C2.02 6.34 0.04 5.68 -2 5 C-1 3 -1 3 0 2 C0 1.34 0 0.68 0 0 Z " fill="#52B7AF" transform="translate(237,538)"/>
<path d="M0 0 C3.91402949 1.26941497 5.79072873 2.51167694 8 6 C4.33118845 5.29445932 1.29549466 3.72264494 -2 2 C-1.34 1.34 -0.68 0.68 0 0 Z " fill="#5BB0AB" transform="translate(658,416)"/>
<path d="M0 0 C0.33 0.66 0.66 1.32 1 2 C1.66 2 2.32 2 3 2 C3 4.97 3 7.94 3 11 C1.04783565 7.09567131 0.49360009 4.27786748 0 0 Z " fill="#4EBAB3" transform="translate(341,593)"/>
<path d="M0 0 C2.08954032 4.17908064 2.16552619 4.80410573 1 9 C0.01 9 -0.98 9 -2 9 C-1.34 6.03 -0.68 3.06 0 0 Z " fill="#6CCAC4" transform="translate(674,567)"/>
<path d="M0 0 C2 4 2 4 1.3125 6.1875 C0 8 0 8 -3 9 C-2.01 6.03 -1.02 3.06 0 0 Z " fill="#64C6BC" transform="translate(447,206)"/>
<path d="M0 0 C2.31 0.66 4.62 1.32 7 2 C6.67 2.66 6.34 3.32 6 4 C4.35 3.67 2.7 3.34 1 3 C0.67 2.01 0.34 1.02 0 0 Z " fill="#4DB0A8" transform="translate(646,799)"/>
<path d="M0 0 C0.33 0 0.66 0 1 0 C1.33 3.3 1.66 6.6 2 10 C1.01 10 0.02 10 -1 10 C-0.67 6.7 -0.34 3.4 0 0 Z " fill="#6FC8C4" transform="translate(274,734)"/>
<path d="M0 0 C3.63 0.33 7.26 0.66 11 1 C11 1.33 11 1.66 11 2 C6.545 2.495 6.545 2.495 2 3 C2 2.34 2 1.68 2 1 C1.34 0.67 0.68 0.34 0 0 Z " fill="#7ACFCB" transform="translate(562,688)"/>
<path d="M0 0 C1 3 1 3 -0.4375 6.1875 C-1.2109375 7.5796875 -1.2109375 7.5796875 -2 9 C-2.66 7.68 -3.32 6.36 -4 5 C-3.34 4.01 -2.68 3.02 -2 2 C-1.34 2 -0.68 2 0 2 C0 1.34 0 0.68 0 0 Z " fill="#6ECBC3" transform="translate(755,570)"/>
<path d="M0 0 C0.75 1.75 0.75 1.75 1 4 C-0.9375 6.25 -0.9375 6.25 -3 8 C-3 4.42424104 -1.91159393 2.94704065 0 0 Z " fill="#64C5BE" transform="translate(430,242)"/>
<path d="M0 0 C1.32 1.65 2.64 3.3 4 5 C3.67 5.66 3.34 6.32 3 7 C2.01 7 1.02 7 0 7 C-1.125 2.25 -1.125 2.25 0 0 Z " fill="#5AB1AB" transform="translate(574,236)"/>
<path d="M0 0 C1.485 0.99 1.485 0.99 3 2 C2.01 2 1.02 2 0 2 C0 1.34 0 0.68 0 0 Z " fill="#5BB5AD" transform="translate(603,781)"/>
<path d="M0 0 C0.99 0.33 1.98 0.66 3 1 C2.01 1 1.02 1 0 1 C0 0.67 0 0.34 0 0 Z " fill="#62BFB6" transform="translate(538,764)"/>
<path d="M0 0 C4 1 4 1 4 1 Z " fill="#67C5BB" transform="translate(574,688)"/>
<path d="M0 0 C1 4 1 4 1 4 Z " fill="#66C2B9" transform="translate(264,602)"/>
<path d="M0 0 C0.99 1.485 0.99 1.485 2 3 C1.34 3 0.68 3 0 3 C0 2.01 0 1.02 0 0 Z " fill="#52ADA3" transform="translate(659,421)"/>
<path d="M0 0 C0 3 0 3 0 3 Z " fill="#68BDB2" transform="translate(113,404)"/>
<path d="M0 0 C3 1 3 1 3 1 Z " fill="#6AC0B9" transform="translate(291,847)"/>
<path d="M0 0 C3 1 3 1 3 1 Z " fill="#63C2B8" transform="translate(261,368)"/>
<path d="M0 0 C0.66 0 1.32 0 2 0 C1.67 0.66 1.34 1.32 1 2 C0.67 1.34 0.34 0.68 0 0 Z " fill="#4BA79E" transform="translate(702,352)"/>
<path d="" fill="#67C1B9" transform="translate(0,0)"/>
<path d="" fill="#61BBB2" transform="translate(0,0)"/>
<path d="M0 0 C2 1 2 1 2 1 Z " fill="#6AC7BE" transform="translate(399,696)"/>
<path d="M0 0 C2 1 2 1 2 1 Z " fill="#6CC6BD" transform="translate(429,688)"/>
<path d="" fill="#69C7BF" transform="translate(0,0)"/>
<path d="" fill="#64C3B9" transform="translate(0,0)"/>
<path d="" fill="#62C3B9" transform="translate(0,0)"/>
<path d="" fill="#62C1B8" transform="translate(0,0)"/>
<path d="" fill="#6AC6BE" transform="translate(0,0)"/>
<path d="" fill="#65C2BA" transform="translate(0,0)"/>
<path d="" fill="#62BFB7" transform="translate(0,0)"/>
<path d="" fill="#64C0B7" transform="translate(0,0)"/>
<path d="M0 0 C2 1 2 1 2 1 Z " fill="#5EB9B1" transform="translate(739,447)"/>
<path d="M0 0 C2 1 2 1 2 1 Z " fill="#5AB5AE" transform="translate(727,445)"/>
<path d="M0 0 C2 1 2 1 2 1 Z " fill="#59B5AB" transform="translate(722,444)"/>
<path d="M0 0 C2 1 2 1 2 1 Z " fill="#53AEA3" transform="translate(640,413)"/>
<path d="" fill="#68BEB4" transform="translate(0,0)"/>
<path d="" fill="#6ABEB9" transform="translate(0,0)"/>
<path d="M0 0 C2 1 2 1 2 1 Z " fill="#53ABA3" transform="translate(640,411)"/>
<path d="M0 0 C2 1 2 1 2 1 Z " fill="#50A9A0" transform="translate(596,383)"/>
<path d="" fill="#63C4BC" transform="translate(0,0)"/>
<path d="M0 0 C2 1 2 1 2 1 Z " fill="#4CA59C" transform="translate(749,368)"/>
<path d="" fill="#4FAAA1" transform="translate(0,0)"/>
<path d="" fill="#4BA69D" transform="translate(0,0)"/>
<path d="" fill="#5DBDB2" transform="translate(0,0)"/>
<path d="" fill="#6D9187" transform="translate(0,0)"/>
<path d="" fill="#66BCB4" transform="translate(0,0)"/>
<path d="" fill="#67BEB4" transform="translate(0,0)"/>
<path d="" fill="#64BCB4" transform="translate(0,0)"/>
<path d="" fill="#68BFB8" transform="translate(0,0)"/>
<path d="" fill="#61B8B1" transform="translate(0,0)"/>
<path d="" fill="#6AC0B6" transform="translate(0,0)"/>
<path d="" fill="#64BBB4" transform="translate(0,0)"/>
<path d="" fill="#61BDB4" transform="translate(0,0)"/>
<path d="" fill="#69C1B8" transform="translate(0,0)"/>
<path d="" fill="#69BCB5" transform="translate(0,0)"/>
<path d="" fill="#62BBB2" transform="translate(0,0)"/>
<path d="" fill="#61BBB3" transform="translate(0,0)"/>
<path d="" fill="#67BDB5" transform="translate(0,0)"/>
<path d="" fill="#67C1B6" transform="translate(0,0)"/>
<path d="" fill="#65BDB6" transform="translate(0,0)"/>
<path d="" fill="#68C5BB" transform="translate(0,0)"/>
<path d="" fill="#64BEB5" transform="translate(0,0)"/>
<path d="" fill="#59B2A9" transform="translate(0,0)"/>
<path d="" fill="#66C3BA" transform="translate(0,0)"/>
<path d="" fill="#68C0B9" transform="translate(0,0)"/>
<path d="" fill="#5BB5AB" transform="translate(0,0)"/>
<path d="" fill="#65BEB8" transform="translate(0,0)"/>
<path d="" fill="#5CB6AC" transform="translate(0,0)"/>
<path d="" fill="#63C3BA" transform="translate(0,0)"/>
<path d="" fill="#5FB7AD" transform="translate(0,0)"/>
<path d="" fill="#67C6BA" transform="translate(0,0)"/>
<path d="" fill="#5CB7AE" transform="translate(0,0)"/>
<path d="" fill="#69C5BC" transform="translate(0,0)"/>
<path d="" fill="#61B9B0" transform="translate(0,0)"/>
<path d="" fill="#5DB9AE" transform="translate(0,0)"/>
<path d="" fill="#68C3BC" transform="translate(0,0)"/>
<path d="" fill="#61BEB4" transform="translate(0,0)"/>
<path d="" fill="#62BDB7" transform="translate(0,0)"/>
<path d="" fill="#5DC2B6" transform="translate(0,0)"/>
<path d="" fill="#58BBB1" transform="translate(0,0)"/>
<path d="" fill="#5EBEB4" transform="translate(0,0)"/>
<path d="" fill="#64C2BA" transform="translate(0,0)"/>
<path d="" fill="#64C1B7" transform="translate(0,0)"/>
<path d="" fill="#60BEB3" transform="translate(0,0)"/>
<path d="" fill="#68C7BD" transform="translate(0,0)"/>
<path d="" fill="#62C2B8" transform="translate(0,0)"/>
<path d="" fill="#6AC2BD" transform="translate(0,0)"/>
<path d="" fill="#69CABF" transform="translate(0,0)"/>
<path d="" fill="#65C4BC" transform="translate(0,0)"/>
<path d="" fill="#5EBCB4" transform="translate(0,0)"/>
<path d="" fill="#72C9C2" transform="translate(0,0)"/>
<path d="" fill="#67C8BF" transform="translate(0,0)"/>
<path d="" fill="#64C3B8" transform="translate(0,0)"/>
<path d="" fill="#5ABBB3" transform="translate(0,0)"/>
<path d="" fill="#61BFB5" transform="translate(0,0)"/>
<path d="" fill="#65C4BA" transform="translate(0,0)"/>
<path d="" fill="#6CC7BF" transform="translate(0,0)"/>
<path d="" fill="#70837C" transform="translate(0,0)"/>
<path d="" fill="#63C4BB" transform="translate(0,0)"/>
<path d="" fill="#64C3BA" transform="translate(0,0)"/>
<path d="" fill="#6CC6BF" transform="translate(0,0)"/>
<path d="" fill="#62BEB5" transform="translate(0,0)"/>
<path d="" fill="#6AC8BD" transform="translate(0,0)"/>
<path d="" fill="#69C9BF" transform="translate(0,0)"/>
<path d="" fill="#66C8BF" transform="translate(0,0)"/>
<path d="" fill="#67C7C0" transform="translate(0,0)"/>
<path d="" fill="#62C0B7" transform="translate(0,0)"/>
<path d="" fill="#5EBDB4" transform="translate(0,0)"/>
<path d="" fill="#61C2B8" transform="translate(0,0)"/>
<path d="" fill="#5FC0B8" transform="translate(0,0)"/>
<path d="" fill="#69C5BC" transform="translate(0,0)"/>
<path d="" fill="#63C3B9" transform="translate(0,0)"/>
<path d="" fill="#63C3B8" transform="translate(0,0)"/>
<path d="" fill="#65C4BA" transform="translate(0,0)"/>
<path d="" fill="#68C6BD" transform="translate(0,0)"/>
<path d="" fill="#62C0B8" transform="translate(0,0)"/>
<path d="" fill="#64C2BB" transform="translate(0,0)"/>
<path d="" fill="#62C0B7" transform="translate(0,0)"/>
<path d="" fill="#6AC9C0" transform="translate(0,0)"/>
<path d="" fill="#60C0B8" transform="translate(0,0)"/>
<path d="" fill="#62C0B9" transform="translate(0,0)"/>
<path d="" fill="#68C7BD" transform="translate(0,0)"/>
<path d="" fill="#65C2B6" transform="translate(0,0)"/>
<path d="" fill="#66C5BF" transform="translate(0,0)"/>
<path d="" fill="#60BFB8" transform="translate(0,0)"/>
<path d="" fill="#61C0B8" transform="translate(0,0)"/>
<path d="" fill="#64C4BD" transform="translate(0,0)"/>
<path d="" fill="#61C0B6" transform="translate(0,0)"/>
<path d="" fill="#61C0B9" transform="translate(0,0)"/>
<path d="" fill="#69C4BC" transform="translate(0,0)"/>
<path d="" fill="#64C2B7" transform="translate(0,0)"/>
<path d="" fill="#60C0B6" transform="translate(0,0)"/>
<path d="" fill="#69C7BE" transform="translate(0,0)"/>
<path d="" fill="#5EBFB7" transform="translate(0,0)"/>
<path d="" fill="#66C1BA" transform="translate(0,0)"/>
<path d="" fill="#64C4BA" transform="translate(0,0)"/>
<path d="" fill="#61BAB4" transform="translate(0,0)"/>
<path d="" fill="#5FC1B8" transform="translate(0,0)"/>
<path d="" fill="#5FBFB7" transform="translate(0,0)"/>
<path d="" fill="#67C7BD" transform="translate(0,0)"/>
<path d="" fill="#5EBDB3" transform="translate(0,0)"/>
<path d="" fill="#63C5BD" transform="translate(0,0)"/>
<path d="" fill="#64BDB6" transform="translate(0,0)"/>
<path d="" fill="#5CBCB4" transform="translate(0,0)"/>
<path d="" fill="#5CBDB4" transform="translate(0,0)"/>
<path d="" fill="#5FBEB6" transform="translate(0,0)"/>
<path d="" fill="#5FBDB5" transform="translate(0,0)"/>
<path d="" fill="#5CBBB4" transform="translate(0,0)"/>
<path d="" fill="#5FBFB7" transform="translate(0,0)"/>
<path d="" fill="#5FBEB6" transform="translate(0,0)"/>
<path d="" fill="#5EC1B7" transform="translate(0,0)"/>
<path d="" fill="#5EBEB4" transform="translate(0,0)"/>
<path d="" fill="#63C6BC" transform="translate(0,0)"/>
<path d="" fill="#5EBFB6" transform="translate(0,0)"/>
<path d="" fill="#5EBDB6" transform="translate(0,0)"/>
<path d="" fill="#5FBBB5" transform="translate(0,0)"/>
<path d="" fill="#60C2B7" transform="translate(0,0)"/>
<path d="" fill="#60C2B8" transform="translate(0,0)"/>
<path d="" fill="#5FC2B8" transform="translate(0,0)"/>
<path d="" fill="#5BBBB2" transform="translate(0,0)"/>
<path d="" fill="#5BC4BB" transform="translate(0,0)"/>
<path d="" fill="#69C0BA" transform="translate(0,0)"/>
<path d="" fill="#60C1B8" transform="translate(0,0)"/>
<path d="" fill="#63BEB6" transform="translate(0,0)"/>
<path d="" fill="#6CC8C0" transform="translate(0,0)"/>
<path d="" fill="#6AC9C1" transform="translate(0,0)"/>
<path d="" fill="#63C7BE" transform="translate(0,0)"/>
<path d="" fill="#68C9C2" transform="translate(0,0)"/>
<path d="" fill="#62BCB2" transform="translate(0,0)"/>
<path d="" fill="#65C0B6" transform="translate(0,0)"/>
<path d="" fill="#67C6BD" transform="translate(0,0)"/>
<path d="" fill="#65BDB5" transform="translate(0,0)"/>
<path d="" fill="#62C5BB" transform="translate(0,0)"/>
<path d="" fill="#66BDB3" transform="translate(0,0)"/>
<path d="" fill="#6BC5BD" transform="translate(0,0)"/>
<path d="" fill="#55AFA7" transform="translate(0,0)"/>
<path d="" fill="#66BAB2" transform="translate(0,0)"/>
<path d="" fill="#53AEA6" transform="translate(0,0)"/>
<path d="" fill="#54ABA3" transform="translate(0,0)"/>
<path d="" fill="#53ADA6" transform="translate(0,0)"/>
<path d="" fill="#65BBB2" transform="translate(0,0)"/>
<path d="" fill="#68BBB3" transform="translate(0,0)"/>
<path d="" fill="#6AC1BA" transform="translate(0,0)"/>
<path d="" fill="#68C6BC" transform="translate(0,0)"/>
<path d="" fill="#66C6BA" transform="translate(0,0)"/>
<path d="" fill="#65C5B9" transform="translate(0,0)"/>
<path d="" fill="#67BEB4" transform="translate(0,0)"/>
<path d="" fill="#4FA9A0" transform="translate(0,0)"/>
<path d="" fill="#51ABA2" transform="translate(0,0)"/>
<path d="" fill="#63C3B8" transform="translate(0,0)"/>
<path d="" fill="#4BA89F" transform="translate(0,0)"/>
<path d="" fill="#50A89F" transform="translate(0,0)"/>
<path d="" fill="#63BFB8" transform="translate(0,0)"/>
<path d="" fill="#66C4B9" transform="translate(0,0)"/>
<path d="" fill="#65C0B6" transform="translate(0,0)"/>
<path d="" fill="#65C4BC" transform="translate(0,0)"/>
<path d="" fill="#65C2BA" transform="translate(0,0)"/>
<path d="" fill="#50AAA0" transform="translate(0,0)"/>
<path d="" fill="#50A6A0" transform="translate(0,0)"/>
<path d="" fill="#53A9A1" transform="translate(0,0)"/>
<path d="" fill="#65C2B8" transform="translate(0,0)"/>
<path d="" fill="#52ACA0" transform="translate(0,0)"/>
<path d="" fill="#66C2B6" transform="translate(0,0)"/>
<path d="" fill="#4FAB9E" transform="translate(0,0)"/>
<path d="" fill="#61C0B8" transform="translate(0,0)"/>
<path d="" fill="#4FAAA0" transform="translate(0,0)"/>
<path d="" fill="#4FA7A0" transform="translate(0,0)"/>
<path d="" fill="#4CA89F" transform="translate(0,0)"/>
<path d="" fill="#4FAAA1" transform="translate(0,0)"/>
<path d="" fill="#4CA89F" transform="translate(0,0)"/>
<path d="" fill="#4FA99D" transform="translate(0,0)"/>
<path d="" fill="#68C2BB" transform="translate(0,0)"/>
<path d="" fill="#64C4BA" transform="translate(0,0)"/>
<path d="" fill="#4CA89E" transform="translate(0,0)"/>
<path d="" fill="#4DA69D" transform="translate(0,0)"/>
<path d="" fill="#4CA79F" transform="translate(0,0)"/>
<path d="" fill="#4CA79F" transform="translate(0,0)"/>
<path d="" fill="#4FAAA1" transform="translate(0,0)"/>
<path d="" fill="#65C4BB" transform="translate(0,0)"/>
<path d="" fill="#4EA99F" transform="translate(0,0)"/>
<path d="" fill="#49A59A" transform="translate(0,0)"/>
<path d="" fill="#52ABA4" transform="translate(0,0)"/>
<path d="" fill="#4BA69C" transform="translate(0,0)"/>
<path d="" fill="#50ACA3" transform="translate(0,0)"/>
<path d="" fill="#60C1B5" transform="translate(0,0)"/>
<path d="" fill="#4FADA2" transform="translate(0,0)"/>
<path d="" fill="#4BA69E" transform="translate(0,0)"/>
<path d="" fill="#51ABA3" transform="translate(0,0)"/>
<path d="" fill="#50ADA2" transform="translate(0,0)"/>
<path d="" fill="#52ACA4" transform="translate(0,0)"/>
<path d="" fill="#54AEA6" transform="translate(0,0)"/>
<path d="" fill="#56B2A8" transform="translate(0,0)"/>
<path d="" fill="#59B5AC" transform="translate(0,0)"/>
<path d="" fill="#4FA69E" transform="translate(0,0)"/>
<path d="" fill="#4DA79F" transform="translate(0,0)"/>
<path d="" fill="#4CA99F" transform="translate(0,0)"/>
<path d="" fill="#4EA89F" transform="translate(0,0)"/>
<path d="" fill="#54ACA5" transform="translate(0,0)"/>
<path d="" fill="#55AEA5" transform="translate(0,0)"/>
<path d="" fill="#64C3B8" transform="translate(0,0)"/>
<path d="" fill="#61BCB4" transform="translate(0,0)"/>
<path d="" fill="#67BEB8" transform="translate(0,0)"/>
<path d="" fill="#63C1B7" transform="translate(0,0)"/>
<path d="" fill="#6EC4BB" transform="translate(0,0)"/>
</svg>
